<?xml version="1.0" encoding="UTF-8" standalone="no"?>
<!-- Created with Inkscape (http://www.inkscape.org/) -->

<svg
   width="128.85806mm"
   height="111.9mm"
   viewBox="0 0 128.85806 111.9"
   version="1.1"
   id="svg1"
   inkscape:export-filename="logo.svg"
   inkscape:export-xdpi="197.11613"
   inkscape:export-ydpi="197.11613"
   xml:space="preserve"
   inkscape:version="1.4.2 (f4327f4, 2025-05-13)"
   sodipodi:docname="logo.svg"
   xmlns:inkscape="http://www.inkscape.org/namespaces/inkscape"
   xmlns:sodipodi="http://sodipodi.sourceforge.net/DTD/sodipodi-0.dtd"
   xmlns="http://www.w3.org/2000/svg"
   xmlns:svg="http://www.w3.org/2000/svg"><sodipodi:namedview
     id="namedview1"
     pagecolor="#ffffff"
     bordercolor="#000000"
     borderopacity="0.25"
     inkscape:showpageshadow="2"
     inkscape:pageopacity="0.0"
     inkscape:pagecheckerboard="0"
     inkscape:deskcolor="#d1d1d1"
     inkscape:document-units="mm"
     inkscape:export-bgcolor="#ffffff1b"
     inkscape:zoom="0.88194444"
     inkscape:cx="296.50394"
     inkscape:cy="228.47244"
     inkscape:window-width="1366"
     inkscape:window-height="697"
     inkscape:window-x="-8"
     inkscape:window-y="-8"
     inkscape:window-maximized="1"
     inkscape:current-layer="svg1"><inkscape:page
       x="4.3967755e-22"
       y="0"
       width="128.85805"
       height="111.9"
       id="page2"
       margin="0"
       bleed="0" /></sodipodi:namedview><defs
     id="defs1"><rect
       x="192.75591"
       y="165.5433"
       width="101.62104"
       height="80.597755"
       id="rect25" /><inkscape:path-effect
       effect="bspline"
       id="path-effect25"
       is_visible="true"
       lpeversion="1.3"
       weight="33.333333"
       steps="2"
       helper_size="0"
       apply_no_weight="true"
       apply_with_weight="true"
       only_selected="false"
       uniform="false" /><inkscape:path-effect
       effect="bspline"
       id="path-effect24"
       is_visible="true"
       lpeversion="1.3"
       weight="33.333333"
       steps="2"
       helper_size="0"
       apply_no_weight="true"
       apply_with_weight="true"
       only_selected="false"
       uniform="false" /><inkscape:path-effect
       effect="bspline"
       id="path-effect22"
       is_visible="true"
       lpeversion="1.3"
       weight="33.333333"
       steps="2"
       helper_size="0"
       apply_no_weight="true"
       apply_with_weight="true"
       only_selected="false"
       uniform="false" /><inkscape:path-effect
       effect="bspline"
       id="path-effect21"
       is_visible="true"
       lpeversion="1.3"
       weight="33.333333"
       steps="2"
       helper_size="0"
       apply_no_weight="true"
       apply_with_weight="true"
       only_selected="false"
       uniform="false" /></defs><ellipse
     style="display:inline;fill:#dbb372;fill-opacity:1;stroke-width:0.264583;stroke:none"
     id="path28"
     cx="75.908058"
     cy="55.950001"
     rx="52.950001"
     ry="55.950001" /><ellipse
     style="fill:#89db72;fill-opacity:1;stroke-width:0.264583;stroke:none"
     id="path7"
     cx="81.451988"
     cy="45.645855"
     rx="19.940411"
     ry="28.21356" /><ellipse
     style="fill:#72a9db;fill-opacity:1;stroke-width:0.264583;stroke:none"
     id="path7-8"
     cx="74.767487"
     cy="47.65731"
     rx="19.940411"
     ry="28.21356" /><rect
     style="fill:#ff00ff;stroke-width:0.194728;stroke:none"
     id="rect8"
     width="64.063873"
     height="5.5154319"
     x="0.84182537"
     y="79.374863" /><g
     inkscape:label="FLECHE"
     inkscape:groupmode="layer"
     id="layer1"
     style="display:inline"
     transform="translate(-37.341941,-21.599995)"><path
       style="fill:#48525c;fill-opacity:1;stroke-width:0.264583;stroke:none"
       id="path4"
       d="m 71.453766,54.036962 c -1.911718,0.204809 -3.843512,0.03715 -5.757654,0.16819 -0.5901,0.0404 -1.175752,0.1304 -1.76363,0.195602 -2.596978,0.568269 -5.159751,1.451062 -7.539837,2.645605 -1.253072,0.628907 -1.84528,1.048481 -3.012008,1.794312 -2.430809,1.745453 -4.414571,4.008432 -6.341669,6.275443 -2.442411,2.887554 -4.132238,6.27657 -5.910659,9.585102 -1.107244,2.180249 -2.309148,4.314458 -3.035469,6.661785 -0.398677,1.288455 -0.401915,1.546659 -0.634704,2.865906 -0.342048,2.168784 0.109821,4.210296 0.849128,6.242296 0.196781,0.540861 0.371374,1.094034 0.635158,1.605571 0.302959,0.587507 0.705181,1.118264 1.05777,1.677395 2.398821,3.236386 5.699509,5.833872 9.663602,6.887271 0.657942,0.17484 1.33541,0.26554 2.003115,0.3983 3.973865,0.63429 7.871905,-0.32589 11.705767,-1.272656 1.606767,-0.284861 3.227756,-0.908322 4.882894,-0.875866 0.691954,0.01357 0.915932,0.138846 1.540145,0.350444 -0.821595,-0.338498 -1.585794,-1.145781 -2.464785,-1.015492 -0.46818,0.0694 0.430795,0.846428 0.583854,1.294291 0.191672,0.560859 0.327207,1.140559 0.446661,1.721099 0.363186,1.76507 0.449485,3.57927 0.601327,5.37018 0.276688,1.71881 0.09767,4.29506 1.411303,5.65307 0.232799,0.24066 0.531964,0.40678 0.797944,0.61016 1.300083,0.71413 2.562402,1.50179 3.900252,2.14238 1.023032,0.48985 3.175198,0.11577 4.154884,-0.35039 0.37505,-0.17846 0.703011,-0.44251 1.054516,-0.66377 2.26682,-1.87961 4.41838,-3.88456 6.756897,-5.67787 1.437444,-1.05154 3.060314,-1.78086 4.857141,-1.25757 0.306353,0.0892 0.592709,0.23654 0.889061,0.35481 0.292179,0.14953 1.159071,0.61562 0.876533,0.44859 -0.699416,-0.41348 -1.388756,-0.85157 -2.128102,-1.18848 -0.326099,-0.14861 0.586407,0.41209 0.878858,0.6192 0.306533,0.21708 0.595019,0.46176 0.918094,0.65336 4.049498,2.40151 2.762218,1.862 5.530718,2.80888 2.129009,0.54519 4.384159,0.78193 6.576609,0.50044 1.09337,-0.14038 2.17007,-0.46679 3.2301,-0.75113 3.1941,-1.02322 5.76338,-3.14399 8.18936,-5.37769 0.93993,-1.05011 1.9561,-2.14747 2.61698,-3.40924 0.86989,-1.6608 1.27645,-3.578632 1.73608,-5.37592 1.04441,-3.801554 1.62244,-7.705883 2.21288,-11.596809 0.51848,-3.111127 0.81091,-6.251244 0.9984,-9.39768 0.16881,-2.293821 0.002,-3.787211 -1.14297,-5.784027 -1.86748,-2.360207 -5.08523,-3.783465 -7.59621,-5.207957 -1.55501,-0.787541 -3.20807,-1.345671 -4.8307,-1.973766 -2.09805,-1.078846 1.20073,0.786832 1.84619,1.09595 0.24214,0.115961 -0.43372,-0.320792 -0.61995,-0.514171 -0.61742,-0.641103 -0.94635,-1.416685 -1.27186,-2.226122 -0.37679,-1.33365 0.27772,-2.493827 0.67341,-3.726471 0.22304,-0.873691 0.65285,-1.857888 0.0569,-2.676895 -0.14902,-0.204817 -0.34795,-0.368194 -0.52192,-0.552294 -2.42689,-1.908651 -5.23025,-3.309892 -8.02252,-4.613918 -1.32401,-0.765733 -2.80423,-1.141928 -4.230528,-1.654114 -1.181574,-0.54025 -3.687527,-1.628976 1.581608,1.033351 0.23569,0.119084 -0.431038,-0.306879 -0.628645,-0.482036 -0.443905,-0.39347 -0.778801,-0.832863 -1.158325,-1.287251 -1.115163,-1.514959 -2.043758,-3.143901 -2.885032,-4.822071 -0.295087,-0.590073 -0.523754,-1.208717 -0.779447,-1.815996 0,0 -3.385074,-1.541005 -3.385074,-1.541005 v 0 c 0.323387,0.620858 0.58097,1.266854 0.905338,1.88772 0.88977,1.671754 1.785808,3.339465 2.876132,4.892741 0.395375,0.530616 1.013092,1.475467 1.586352,1.832536 1.650254,1.027903 3.058292,1.9222 4.792191,2.563728 1.38793,0.458221 2.78595,0.892598 4.08166,1.584833 0.28964,0.134905 0.58124,0.265665 0.86891,0.404719 0.31951,0.154446 1.24384,0.678262 0.95245,0.475697 -0.65183,-0.453146 -1.36594,-0.809683 -2.03883,-1.230934 -0.50405,-0.315558 1.03216,0.594209 1.51866,0.936212 0.20033,0.140836 0.39349,0.291616 0.59024,0.437423 0.0898,0.08455 0.72561,0.654314 0.81266,0.831389 0.29355,0.597125 -0.15828,1.415685 -0.22851,2.008807 -0.41644,1.318506 -1.03183,2.592073 -0.66347,4.006906 1.18668,3.252488 2.56918,3.847353 6.1499,5.39175 1.58834,0.597202 3.20169,1.143167 4.70757,1.93502 -0.70904,-0.419087 -1.42154,-0.832366 -2.12712,-1.257263 -0.28006,-0.168654 0.57221,0.316865 0.85048,0.488471 1.04241,0.642858 2.0866,1.344131 2.84555,2.319904 1.29894,1.982684 1.49684,3.351178 1.4905,5.7215 -0.10822,3.165459 -0.34332,6.322976 -0.82519,9.456193 -0.46282,3.910639 -1.02847,7.825938 -2.0433,11.636269 -0.36588,1.118433 -0.81354,2.585212 -1.28801,3.684315 -0.77367,1.792186 -1.93204,3.371936 -3.23846,4.810076 -2.3256,2.2781 -4.89072,4.31516 -8.05848,5.27116 -0.51679,0.13917 -1.02735,0.30394 -1.55035,0.4175 -2.70616,0.58756 -5.511047,0.458 -8.158682,-0.34194 -0.501824,-0.20026 -1.750279,-1.08245 -1.505476,-0.60078 0.306615,0.60329 1.128032,0.75522 1.735526,1.05342 0.330385,0.16218 -0.600969,-0.42508 -0.898049,-0.64233 -0.286022,-0.20917 -0.549158,-0.45149 -0.851151,-0.63686 -3.328339,-2.043 -2.711514,-1.72083 -4.789636,-2.6928 -0.313248,-0.10145 -0.617773,-0.23544 -0.939749,-0.30435 -1.847525,-0.39542 -3.474599,0.45564 -4.863383,1.59574 -2.248705,1.87928 -4.359513,3.93405 -6.774649,5.60588 -0.355406,0.18697 -0.694142,0.40981 -1.06622,0.56089 -0.939895,0.38165 -2.103726,0.52282 -3.106888,0.36845 -0.322826,-0.0497 -1.187768,-0.47556 -0.945798,-0.25616 0.623816,0.56561 1.427583,0.89346 2.141373,1.3402 -0.271735,-0.16678 -0.571201,-0.29511 -0.815205,-0.50033 -1.562669,-1.31428 -1.44699,-3.84419 -1.846911,-5.64528 -0.19051,-1.8011 -0.340897,-3.61011 -0.590756,-5.40434 -0.0168,-0.12065 -0.373161,-2.740431 -0.636696,-2.996214 -1.073177,-1.041599 -2.438392,-1.732278 -3.657589,-2.598418 -0.231733,-0.04929 -0.4596,-0.122888 -0.695196,-0.147875 -1.871686,-0.198493 -3.690726,0.706405 -5.47819,1.080513 -3.73212,1.097627 -7.540363,1.989955 -11.447994,1.27703 -0.675299,-0.156173 -1.363157,-0.265557 -2.025896,-0.468524 -0.629576,-0.192813 -1.182666,-0.722027 -1.841074,-0.715762 -0.467394,0.0044 1.388861,1.150361 1.202182,0.721842 -0.226827,-0.520681 -0.921184,-0.668052 -1.343959,-1.04729 -0.970275,-0.870349 -1.63558,-1.734708 -2.472494,-2.730013 -0.329983,-0.528754 -0.703696,-1.032613 -0.989952,-1.586264 -1.209741,-2.339771 -1.728631,-5.019794 -1.443215,-7.629184 0.194652,-1.202094 0.240747,-1.67042 0.55357,-2.85532 0.62363,-2.362178 1.668332,-4.578963 2.728452,-6.770031 1.801833,-3.291318 3.750926,-6.482019 6.214824,-9.329216 1.930045,-2.212104 3.816501,-4.506312 6.194957,-6.260301 3.154783,-2.128911 6.59956,-3.817236 10.411557,-4.345942 2.683241,-0.158954 5.374966,-0.0845 8.058867,0.05929 z" /><path
       d="m 88.736186,35.203019 c -0.161826,-0.0026 -0.308341,0.02284 -0.429431,0.08682 -0.113419,0.05992 -0.184378,0.178385 -0.276469,0.267684 -0.155043,0.876332 0.392213,1.778032 0.243396,2.678906 -0.01318,1.121276 0.02989,2.241933 0.04186,3.363102 0.01188,1.311695 0.04294,2.629591 -0.09819,3.935677 l 3.453536,1.760099 c -0.136506,-1.340276 -0.111013,-2.691095 -0.0987,-4.036446 0.01257,-1.106979 0.05471,-2.213636 0.04186,-3.320727 0.167084,-0.844619 -0.345574,-1.731434 -0.168465,-2.5585 0.821285,0.140639 1.595179,0.520499 2.338875,0.893485 1.241459,0.592183 2.434786,1.275055 3.725871,1.756999 1.025541,0.367172 2.103324,0.487029 3.183781,0.537951 L 97.650372,38.33203 C 96.618489,38.27086 95.591111,38.136761 94.61955,37.762039 93.343062,37.246975 92.143343,36.563915 90.900913,35.973518 90.427915,35.753855 89.437434,35.214491 88.736188,35.203022 Z"
       style="fill:#48525c;fill-opacity:1;stroke-width:0.264583;stroke:none"
       id="path6" /><path
       style="fill:#000000;stroke-width:0.264583;stroke:none"
       d="m 66.3,78.3 c 4.949999,2.1 0,0 0,0 z"
       id="path20" /><path
       style="fill:#48525c;fill-opacity:1;stroke-width:0.264583;stroke:none"
       d="m 69.9,81.9 c -0.200001,0.15 -0.400001,0.299999 -0.400001,0.299999 0,0 0.2,-0.149999 0.075,0.05 -0.125,0.2 -0.575,0.75 -0.875,1.349999 -0.3,0.6 -0.449999,1.249999 -0.45,1.674999 0,0.425001 0.150001,0.625002 0.25,0.725001 0.1,0.1 0.150001,0.1 0.175,0.124999 0.025,0.025 0.025,0.075 0.075,0.100001 0.05,0.025 0.15,0.025 0.225,0.05 0.075,0.025 0.125001,0.075 0.5,0.075 0.375,0 1.075,-0.05 1.45,-0.125001 0.375,-0.075 0.425,-0.174998 0.575,-0.299999 0.15,-0.125 0.4,-0.275 0.524999,-0.4 0.125,-0.125001 0.125,-0.225 0.15,-0.275 0.025,-0.05 0.075,-0.05 0.150002,-0.1 0.075,-0.05 0.175,-0.150001 0.274999,-0.25"
       id="path21"
       inkscape:path-effect="#path-effect21"
       inkscape:original-d="m 69.9,81.9 c -0.200001,0.15 -0.4,0.3 -0.600001,0.449998 C 69.5,82.2 69.699999,82.05 69.9,81.9 69.449999,82.45 68.999999,83 68.549998,83.55 68.4,84.199999 68.25,84.849998 68.1,85.5 c 0.15,0.199998 0.3,0.4 0.449998,0.599998 0.05,0 0.100002,0 0.15,0 0,0.05 0,0.100002 0,0.15 0.100002,0 0.200001,0 0.300001,0 0.05,0.05 0.1,0.100002 0.15,0.150001 0.7,-0.05 1.4,-0.1 2.1,-0.150001 0.05,-0.1 0.1,-0.199998 0.150001,-0.3 0.249999,-0.15 0.499999,-0.299998 0.749998,-0.449998 0,-0.100002 0,-0.200001 0,-0.300001 0.05,0 0.100002,0 0.15,0 0.100002,-0.1 0.200002,-0.200001 0.300001,-0.3"
       transform="matrix(1.2416271,0,0,1.3206683,-22.491052,-24.787658)" /><path
       style="fill:#48525c;fill-opacity:1;stroke-width:0.264583;stroke:none"
       d="M 72.249999,80.974999 C 72.4,81.299999 72.8,81.6 73.025,81.8 c 0.225,0.2 0.274999,0.299998 0.425,0.474999 0.15,0.175001 0.399999,0.425 0.524999,0.6 0.125,0.175 0.125,0.275001 0.175001,0.325001 0.05,0.05 0.15,0.05 0.224999,0.124999 0.075,0.075 0.125,0.225001 0.250001,0.300001 0.125,0.075 0.324999,0.075 0.425,0.05 0.1,-0.025 0.1,-0.075 0.2,-0.100001 0.1,-0.025 0.3,-0.025 0.424999,-0.05 0.124999,-0.025 0.175,-0.075 0.325,-0.125001 0.149999,-0.05 0.400001,-0.1 0.525001,-0.15 0.125,-0.05 0.125,-0.1 0.15,-0.125 0.025,-0.025 0.075,-0.025 0.1,-0.05 0.025,-0.025 0.025,-0.075 0.05,-0.1 0.025,-0.025 0.075,-0.025 0.225,-0.125 0.149999,-0.1 0.399999,-0.3 0.549999,-0.450001 0.15,-0.15 0.2,-0.249999 0.275,-0.299998 0.075,-0.05 0.175001,-0.05 0.250001,-0.100001 0.075,-0.05 0.125,-0.15 0.225,-0.249999 0.1,-0.1 0.250001,-0.200001 0.325,-0.300001 0.075,-0.1 0.075,-0.200001 0.125,-0.275001 0.05,-0.075 0.149999,-0.125 0.199998,-0.225 0.05,-0.1 0.05,-0.25 0.1,-0.399999 0.05,-0.15 0.150001,-0.299999 0.200001,-0.424999 0.05,-0.125 0.05,-0.225002 0.075,-0.300002 0.025,-0.075 0.075,-0.124999 0.1,-0.375 0.025,-0.25 0.025,-0.699998 0,-0.924998 -0.025,-0.225 -0.075,-0.225 -0.2,-0.375 C 79.149999,77.999999 78.95,77.699999 78.5,77.524998 c -0.45,-0.175 -1.15,-0.225 -1.5,-0.225 -0.35,0 -0.35,0.05 -0.55,0.150001 -0.2,0.1 -0.6,0.249999 -0.825001,0.375 -0.225,0.125 -0.275,0.225001 -0.4,0.300001 -0.125,0.075 -0.325001,0.125 -0.45,0.225 -0.125,0.1 -0.175,0.25 -0.275,0.375 -0.1,0.125 -0.25,0.224999 -0.350001,0.324999 -0.1,0.100001 -0.15,0.2 -0.225,0.25 -0.075,0.05 -0.174998,0.05 -0.224998,0.075 -0.05,0.025 -0.05,0.075 -0.175001,0.125 -0.125001,0.05 -0.375,0.1 -0.55,0.175 -0.175,0.075 -0.275001,0.175001 -0.375,0.225 -0.1,0.05 -0.199999,0.05 -0.3,0.225 -0.100001,0.174999 -0.200001,0.525 -0.05,0.85 z"
       id="path22"
       inkscape:path-effect="#path-effect22"
       inkscape:original-d="M 71.999998,80.999998 C 72.4,81.299999 72.8,81.599999 73.2,81.9 c 0.05,0.1 0.1,0.199998 0.15,0.3 0.25,0.25 0.499999,0.499999 0.749999,0.749999 0,0.1 0,0.200001 0,0.3 0.100001,0 0.200001,0 0.3,0 0.05,0.15 0.1,0.300001 0.15,0.450001 0.200001,0 0.4,0 0.600001,0 0,-0.05 0,-0.100002 0,-0.15 0.199999,0 0.4,0 0.599998,0 0.05,-0.05 0.100002,-0.1 0.150001,-0.150001 0.249999,-0.05 0.500001,-0.1 0.750001,-0.15 0,-0.05 0,-0.1 0,-0.15 0.05,0 0.1,0 0.15,0 0,-0.05 0,-0.1 0,-0.15 0.05,0 0.1,0 0.15,0 0.25,-0.199999 0.499999,-0.4 0.749999,-0.600001 0.05,-0.1 0.1,-0.199999 0.15,-0.299998 0.1,0 0.200001,0 0.3,0 0.05,-0.100002 0.1,-0.200001 0.150001,-0.3 0.15,-0.1 0.3,-0.200002 0.45,-0.300001 0,-0.1 0,-0.200001 0,-0.3 0.1,-0.05 0.199999,-0.1 0.299998,-0.150001 0,-0.15 0,-0.3 0,-0.449998 0.100002,-0.15 0.200001,-0.3 0.300001,-0.45 0,-0.1 0,-0.200002 0,-0.300001 0.05,-0.05 0.1,-0.1 0.15,-0.15 0,-0.450001 0,-0.899999 0,-1.349999 -0.05,0 -0.1,0 -0.15,0 -0.199999,-0.300001 -0.4,-0.600001 -0.599999,-0.900002 -0.7,-0.05 -1.4,-0.1 -2.1,-0.15 0,0.05 0,0.100002 0,0.15 -0.4,0.15 -0.8,0.300001 -1.200002,0.450001 -0.05,0.1 -0.1,0.200001 -0.149998,0.3 -0.200001,0.05 -0.400002,0.1 -0.600001,0.150001 -0.05,0.15 -0.1,0.3 -0.15,0.45 -0.15,0.1 -0.3,0.199999 -0.45,0.299998 -0.05,0.100002 -0.1,0.200001 -0.150001,0.300001 -0.1,0 -0.199998,0 -0.299998,0 0,0.05 0,0.1 0,0.15 -0.250002,0.05 -0.500001,0.1 -0.750001,0.15 -0.1,0.1 -0.200001,0.200001 -0.3,0.3 -0.1,0 -0.199999,0 -0.300001,0 -0.1,0.349999 -0.199998,0.700001 -0.3,1.049999 z"
       transform="matrix(1.2416271,0,0,1.3206683,-22.491052,-24.787658)" /><path
       style="fill:#48525c;fill-opacity:1;stroke-width:0.264583;stroke:none"
       d="m 86.549999,84.824999 c -0.200001,0.425 0.05,1.075001 0.175,1.750001 0.125,0.674999 0.125,1.374999 0.45,1.749999 0.325,0.375 0.974999,0.425001 1.35,0.475001 0.375001,0.05 0.474999,0.1 0.975,0.05 0.5,-0.05 1.400001,-0.2 1.925001,-0.35 0.524999,-0.15 0.674999,-0.3 0.825,-0.425 0.15,-0.125001 0.299999,-0.225 0.399999,-0.375 0.1,-0.15 0.15,-0.350001 0.225,-0.500001 0.075,-0.15 0.175,-0.249999 0.199999,-0.475 0.025,-0.225 -0.025,-0.574999 -0.075,-0.875 -0.05,-0.3 -0.1,-0.549999 -0.199999,-0.699999 -0.1,-0.15 -0.249999,-0.2 -0.349999,-0.275 -0.1,-0.075 -0.150001,-0.175002 -0.250001,-0.275001 -0.1,-0.1 -0.249999,-0.199999 -0.35,-0.3 C 91.749999,84.199998 91.699999,84.1 91.5,84.05 91.3,84 90.949998,84 90.349998,84 c -0.599999,0 -1.449999,0 -2.199999,0.1 -0.75,0.1 -1.399999,0.299999 -1.6,0.724999 z"
       id="path24"
       inkscape:path-effect="#path-effect24"
       inkscape:original-d="M 86.099998,84.599999 C 86.35,85.249998 86.6,85.9 86.849999,86.549999 c 0,0.7 0,1.4 0,2.1 0.65,0.05 1.299999,0.1 1.950001,0.150001 0.1,0.05 0.199998,0.1 0.3,0.15 0.899999,-0.15 1.8,-0.300001 2.699999,-0.450001 0.15,-0.15 0.3,-0.3 0.450001,-0.450001 0.15,-0.1 0.3,-0.199998 0.45,-0.3 0.05,-0.199999 0.1,-0.4 0.149998,-0.599998 0.100002,-0.100002 0.200001,-0.200001 0.3,-0.300001 -0.05,-0.350001 -0.1,-0.7 -0.15,-1.050001 -0.05,-0.25 -0.1,-0.499999 -0.15,-0.749999 C 92.7,84.999998 92.55,84.95 92.4,84.899999 c -0.05,-0.1 -0.100002,-0.200001 -0.15,-0.3 -0.150001,-0.1 -0.300001,-0.199999 -0.450001,-0.300001 -0.05,-0.1 -0.1,-0.199998 -0.15,-0.299998 C 91.3,84 90.949998,84 90.6,84 c -0.850001,0 -1.700001,0 -2.550002,0 -0.649999,0.199999 -1.299998,0.4 -1.95,0.599999 z"
       transform="matrix(1.2416271,0,0,1.3206683,-22.491052,-24.787658)" /><path
       style="fill:#48525c;fill-opacity:1;stroke-width:0.264583;stroke:none"
       d="m 83.424999,84.649999 c 0.225001,0 0.325,0.199998 0.325,0.199998 0,0 -0.1,-0.199999 -0.075,-0.075 0.025,0.125 0.175001,0.575001 0.25,1.000001 C 84,86.2 84,86.6 84.025,86.8 c 0.025,0.2 0.075,0.2 0.1,0.25 0.025,0.05 0.025,0.149998 0.075,0.274999 0.05,0.125002 0.15,0.275 0.2,0.549999 0.05,0.275 0.05,0.675002 0.075,0.975001 0.025,0.299999 0.075,0.500001 -0.274998,0.575 -0.35,0.075 -1.100001,0.025 -1.525002,-0.05 -0.425,-0.075 -0.524999,-0.174999 -0.774998,-0.299999 -0.25,-0.124999 -0.650002,-0.275 -0.850002,-0.5 -0.2,-0.225 -0.2,-0.525001 -0.149999,-0.700001 0.05,-0.175001 0.15,-0.225 0.2,-0.525 0.05,-0.3 0.05,-0.85 0.1,-1.15 0.05,-0.3 0.150001,-0.35 0.250001,-0.5 0.1,-0.15 0.2,-0.399999 0.374999,-0.524999 0.175,-0.125 0.425,-0.125 0.725,-0.225 0.3,-0.100001 0.649999,-0.3 0.875,-0.3 z"
       id="path25"
       inkscape:path-effect="#path-effect25"
       inkscape:original-d="m 83.55,84.449998 c 0.1,0.200001 0.199998,0.4 0.3,0.600001 -0.100002,-0.200001 -0.200001,-0.4 -0.3,-0.600001 0.15,0.450001 0.3,0.900002 0.45,1.35 C 84,86.2 84,86.6 84,87 c 0.05,0 0.1,0 0.149998,0 0,0.1 0,0.199998 0,0.3 0.100002,0.15 0.200001,0.299998 0.3,0.449998 0,0.4 0,0.800002 0,1.200002 0.05,0.199998 0.100002,0.4 0.150001,0.599998 -0.749999,-0.05 -1.5,-0.1 -2.250001,-0.15 -0.1,-0.1 -0.199999,-0.199999 -0.299998,-0.299998 -0.4,-0.15 -0.800002,-0.3 -1.200002,-0.450001 0,-0.3 0,-0.600001 0,-0.900001 0.100002,-0.05 0.200001,-0.1 0.300001,-0.15 0,-0.55 0,-1.1 0,-1.65 0.1,-0.05 0.200001,-0.1 0.3,-0.15 0.1,-0.25 0.200001,-0.499999 0.300001,-0.749999 0.249999,0 0.499999,0 0.749998,0 0.350001,-0.200001 0.7,-0.4 1.050002,-0.600001 z"
       transform="matrix(1.2416271,0,0,1.3206683,-22.491052,-24.787658)" /><text
       xml:space="preserve"
       transform="matrix(0.47746916,0,0,0.47746916,-42.128233,-34.393138)"
       id="text25"
       style="font-size:41.3756px;line-height:0.3;text-align:start;letter-spacing:2.21655px;writing-mode:lr-tb;direction:ltr;white-space:pre;shape-inside:url(#rect25);display:inline;fill:#48525c;fill-opacity:1;stroke:none"><tspan
         x="192.75586"
         y="184.79062"
         id="tspan2"><tspan
           style="font-family:'Berlin Sans FB';-inkscape-font-specification:'Berlin Sans FB'"
           id="tspan1">TFC</tspan></tspan></text><path
       style="fill:#db72c8;fill-opacity:1;stroke-width:1.13386;stroke:none"
       d="m 270.48794,394.29921 c -0.4226,-4.20945 -1.02666,-8.54645 -1.34235,-9.63779 -0.54139,-1.87153 2.74754,-1.98425 57.89611,-1.98425 h 58.47011 v 9.63779 9.6378 H 368.0496 c -16.22842,0 -17.89077,-0.1995 -23.52756,-2.82357 -8.1255,-3.78262 -15.84071,-3.79692 -21.93936,-0.0407 -4.42967,2.72831 -5.081,2.79428 -27.9309,2.82884 l -23.39547,0.0354 z"
       id="path26"
       transform="scale(0.26458333)" /><path
       style="fill:#db72c8;fill-opacity:1;stroke-width:1.13386;stroke:none"
       d="m 145.13386,392.31496 v -9.63779 h 56.05907 c 30.83248,0 56.31419,0.41279 56.62601,0.91733 0.31181,0.50453 0.92254,4.84154 1.35717,9.63779 l 0.79022,8.72047 H 202.5501 145.13386 Z"
       id="path27"
       transform="scale(0.26458333)" /></g></svg>
